<svg width="66" height="63" viewBox="0 0 66 63" fill="none" xmlns="http://www.w3.org/2000/svg">
<path d="M40.6169 14.5379C32.2058 14.5379 15.3572 8.02927 15.3572 0H15.2327C15.2327 6.42625 17.907 12.5893 22.6673 17.1334C27.4276 21.6775 33.884 24.2305 40.6163 24.2308C44.6556 24.2308 48.5296 25.7625 51.386 28.4889C54.2424 31.2153 55.8471 34.9132 55.8471 38.769C55.848 42.6247 54.244 46.3232 51.3883 49.0501C48.5325 51.7773 44.6588 53.3096 40.6195 53.3105C36.5798 53.3111 32.7055 51.78 29.8486 49.054C26.9918 46.3281 25.3863 42.6305 25.3855 38.7747C25.3854 35.5926 24.7288 32.4417 23.453 29.502C22.1772 26.5622 20.3073 23.891 17.95 21.641C15.5927 19.3911 12.7943 17.6063 9.7144 16.3887C6.63455 15.1711 3.33357 14.5444 0 14.5446V14.6625C8.41001 14.6625 15.2286 30.7383 15.2317 38.7687H15.2302C15.2301 43.5612 16.7188 48.2459 19.508 52.2307C22.2972 56.2154 26.2617 59.3212 30.9 61.1552C35.5384 62.9895 40.6423 63.4695 45.5666 62.5345C50.4906 61.5998 55.0138 59.2922 58.5642 55.9038C62.1142 52.5151 64.5321 48.1978 65.5119 43.4973C66.4918 38.7971 65.9892 33.9252 64.0682 29.4975C62.1472 25.0698 58.8939 21.2853 54.7197 18.6225C50.5452 15.9597 45.6374 14.5383 40.6169 14.5379Z" fill="white"/>
</svg>
